<svg width="288" height="286" viewBox="0 0 288 286" fill="none" xmlns="http://www.w3.org/2000/svg">
<g clip-path="url(#clip0_2_80)">
<path d="M262.305 151.208L89.5437 99.3485L59.9979 198.073L232.759 249.933L262.305 151.208Z" fill="#F2F2F2"/>
<path d="M232.879 251.175L-7.62939e-06 179.409L55.1207 0L288 71.7654L232.879 251.175ZM1.28943 178.751L232.183 249.904L286.711 72.424L55.8174 1.2706L1.28943 178.751Z" fill="#3F3D56"/>
<path d="M148.249 60.0238H83.9421V133.114H148.249V60.0238Z" fill="#2F2E41"/>
<path d="M184.226 276.926H90.5602V242.136C90.5758 233.967 92.0266 225.865 94.8465 218.199C94.9892 217.808 95.1319 217.423 95.2808 217.038C99.4306 206.234 104.827 199.891 104.827 199.891C142.666 221.014 165.617 201.755 165.617 201.755L169.724 218.342L170.021 219.548L180.945 263.668L181.243 264.88L184.226 276.926Z" fill="#2F2E41"/>
<path d="M170.021 219.548C155.928 222.983 143.441 224.163 132.915 224.163C126.362 224.178 119.817 223.695 113.338 222.716C107.051 221.772 100.862 220.26 94.8465 218.199C94.9892 217.808 95.1319 217.423 95.2808 217.038C101.239 219.078 107.37 220.571 113.598 221.498C126.395 223.461 145.699 224.195 169.724 218.342L170.021 219.548Z" fill="#3F3D56"/>
<path d="M181.243 264.88C162.503 270.751 146.152 272.621 132.915 272.621C126.362 272.635 119.817 272.152 113.338 271.173C102.681 269.527 94.9086 266.837 90.5602 265.041V263.693C94.7224 265.458 102.594 268.266 113.598 269.955C128.331 272.217 151.691 272.844 180.945 263.668L181.243 264.88Z" fill="#3F3D56"/>
<path d="M183.916 120.062L170.71 142.898V142.905L170.269 143.669L139.874 171.004L102.656 145.533L86.5283 125.032C86.5283 125.032 89.0095 116.955 97.6938 115.713C99.9826 115.384 101.924 115.061 103.692 114.688C104.895 114.433 106.018 114.16 107.116 113.849C110.522 112.886 113.667 111.575 118.164 109.5C126.228 105.773 115.683 93.9693 115.683 93.9693L137.393 80.3019C137.393 80.3019 147.033 111.675 163.936 111.395C164.184 111.395 164.432 111.383 164.687 111.364C165.617 111.296 166.504 111.265 167.348 111.258C182.248 111.159 183.916 120.062 183.916 120.062Z" fill="#FFB8B8"/>
<path d="M108.239 137.456L103.692 114.688C104.895 114.433 106.018 114.16 107.116 113.849L108.239 137.456Z" fill="#3F3D56"/>
<path d="M167.348 111.258L163.136 134.04L163.936 111.395C164.184 111.395 164.432 111.383 164.687 111.364C165.617 111.296 166.504 111.265 167.348 111.258Z" fill="#3F3D56"/>
<path d="M116.923 96.4543C129.941 96.4543 140.495 85.8849 140.495 72.847C140.495 59.809 129.941 49.2397 116.923 49.2397C103.905 49.2397 93.3516 59.809 93.3516 72.847C93.3516 85.8849 103.905 96.4543 116.923 96.4543Z" fill="#FFB8B8"/>
<path d="M90.2501 121.304L86.5283 125.032C86.5283 125.032 80.9455 175.352 86.5283 199.581L112.581 266.675C112.581 266.675 119.404 290.283 134.292 285.313C149.179 280.343 121.886 253.008 121.886 253.008L102.656 200.202V134.35L90.2501 121.304Z" fill="#FFB8B8"/>
<path d="M174.612 114.47L183.916 120.062C183.916 120.062 191.98 148.018 185.157 186.535L174.612 259.842C174.612 259.842 168.409 287.798 155.382 280.964C142.356 274.13 164.066 251.144 164.066 251.144L169.649 193.99L170.89 134.35L174.612 114.47Z" fill="#FFB8B8"/>
<path d="M136.773 157.336L107.619 133.108L101.416 148.018C101.416 148.018 95.2125 210.142 100.175 208.899C105.137 207.657 105.758 202.066 110.1 206.415C114.442 210.763 141.735 216.976 145.457 213.248C149.179 209.521 167.168 203.93 167.168 203.93C167.168 203.93 174.612 198.338 172.13 190.883C169.649 183.429 172.13 182.186 172.751 179.08C173.371 175.974 172.751 143.048 172.751 143.048L164.066 128.138L136.773 157.336Z" fill="#3F3D56"/>
<path d="M137.552 116.039C143.058 115.354 147.834 111.848 151.745 105.62L150.695 104.959C146.993 110.853 142.522 114.166 137.406 114.805C128.315 115.94 120.115 108.221 120.033 108.143L119.177 109.041C119.503 109.353 126.735 116.164 135.515 116.164C135.521 116.164 135.527 116.163 135.532 116.163V125.995C134.768 126.072 134.061 126.431 133.546 127.001C133.031 127.572 132.745 128.313 132.745 129.082C132.745 129.851 133.03 130.593 133.544 131.163C134.059 131.734 134.766 132.093 135.53 132.171C136.294 132.249 137.06 132.04 137.678 131.586C138.297 131.131 138.726 130.462 138.88 129.709C139.035 128.955 138.905 128.172 138.516 127.509C138.127 126.846 137.505 126.352 136.773 126.121V116.111C137.032 116.091 137.291 116.071 137.552 116.039Z" fill="#6C63FF"/>
<path d="M115.993 32.1554C115.993 32.1554 92.1408 35.1421 86.8009 49.5533C81.4609 63.9645 72.1159 71.5304 72.1159 71.5304C72.1159 71.5304 57.3953 81.7784 64.7557 100.073C64.7557 100.073 41.8561 115.485 56.986 129.175C56.986 129.175 56.096 142.866 64.996 152.233C64.996 152.233 72.1159 155.836 69.446 157.998C66.776 160.159 87.2459 158.718 85.4659 139.263C83.6859 119.808 95.7008 106.104 95.7008 106.104C95.7008 106.104 84.1309 80.8792 89.4709 72.2325C92.713 66.9827 94.1053 63.0678 96.7967 60.802C98.2955 59.5703 99.6856 58.2117 100.952 56.7411C102.609 54.7689 105.964 52.0828 111.276 53.5164C113.542 54.0977 115.641 55.2037 117.404 56.7452C122.724 61.4739 128.482 65.6848 134.6 69.321C137.476 71.0306 140.489 72.9626 143.286 75.0213C148.466 78.8337 144.187 86.9132 139.008 93.6774C131.345 103.685 131.194 117.744 139.208 127.471C139.444 127.757 139.684 128.037 139.929 128.312C147.766 137.101 137.671 144.763 137.086 145.748C135.751 147.997 130.419 162.195 152.442 162.258C152.442 162.258 157.556 151.513 164.676 145.028C171.796 138.543 166.456 119.808 166.456 119.808C166.456 119.808 177.135 113.323 165.566 97.4706C165.566 97.4706 171.685 78.1762 161.895 68.8089C161.895 68.8089 146.253 27.1115 115.993 32.1554Z" fill="#2F2E41"/>
<path d="M142.666 78.1276C144.379 78.1276 145.767 76.0415 145.767 73.4682C145.767 70.895 144.379 68.8089 142.666 68.8089C140.953 68.8089 139.564 70.895 139.564 73.4682C139.564 76.0415 140.953 78.1276 142.666 78.1276Z" fill="#FFB8B8"/>
<path d="M142.976 93.0524C139.376 93.0524 136.448 89.2834 136.448 84.6506C136.448 80.0177 139.376 76.2487 142.976 76.2487C143.062 76.2487 143.145 76.283 143.206 76.3441C143.267 76.4052 143.301 76.488 143.301 76.5744C143.301 76.6608 143.267 76.7436 143.206 76.8047C143.145 76.8658 143.062 76.9001 142.976 76.9001C139.735 76.9001 137.098 80.377 137.098 84.6506C137.098 88.9242 139.735 92.401 142.976 92.401C146.217 92.401 148.854 88.9242 148.854 84.6506C148.854 80.8405 147.49 78.0534 145.205 77.1952C145.124 77.1647 145.059 77.1034 145.024 77.0248C144.988 76.9462 144.985 76.8567 145.016 76.7759C145.046 76.6951 145.107 76.6297 145.185 76.5939C145.264 76.5581 145.353 76.5549 145.434 76.5851C147.983 77.5427 149.504 80.5579 149.504 84.6506C149.504 89.2834 146.576 93.0524 142.976 93.0524Z" fill="#6C63FF"/>
<path d="M145.602 74.975C145.409 75.9972 144.878 76.9243 144.093 77.6059L145.602 74.975Z" fill="#FFB8B8"/>
<path d="M122.45 252.772L109.608 259.105L109.921 259.741L122.762 253.408L122.45 252.772Z" fill="#6C63FF"/>
<path d="M116.24 258.755C117.802 258.755 119.069 257.487 119.069 255.922C119.069 254.357 117.802 253.089 116.24 253.089C114.677 253.089 113.411 254.357 113.411 255.922C113.411 257.487 114.677 258.755 116.24 258.755Z" fill="#6C63FF"/>
<path d="M232.618 251.075C220.283 244.189 212.604 234.787 209.794 223.13C207.708 214.476 208.308 204.737 211.576 194.185C213.999 186.405 217.632 179.056 222.34 172.409C247.32 136.997 249.575 113.922 247.068 100.801C244.319 86.4131 235.387 80.4379 235.297 80.3792L235.682 79.7854C235.775 79.8454 244.942 85.9595 247.757 100.639C249.38 109.102 248.616 118.751 245.488 129.32C241.593 142.473 234 157.108 222.918 172.818C218.252 179.404 214.653 186.686 212.252 194.395C206.891 211.702 206.133 235.477 232.962 250.457L232.618 251.075Z" fill="#2F2E41"/>
<path d="M210.09 185.504C200.365 180.075 200.636 171.471 202.576 165.209C203.436 162.448 204.725 159.839 206.396 157.48C215.148 145.074 215.938 137.015 215.061 132.438C214.108 127.469 211.05 125.429 211.02 125.409L211.405 124.815C211.541 124.903 214.746 127.042 215.755 132.305C217.07 139.157 214.115 147.765 206.974 157.888C205.346 160.187 204.089 162.728 203.251 165.419C201.389 171.431 201.124 179.688 210.434 184.885L210.09 185.504Z" fill="#2F2E41"/>
<path d="M253.84 106.878L253.496 106.259C262.806 101.062 262.541 92.8046 260.679 86.7934C259.841 84.1027 258.584 81.5612 256.956 79.2626C249.815 69.1391 246.86 60.5315 248.175 53.6789C249.184 48.4164 252.389 46.2775 252.525 46.1891L252.911 46.7826C252.88 46.8031 249.807 48.87 248.864 53.8405C247.996 58.4141 248.795 66.4663 257.534 78.8537C259.205 81.2131 260.494 83.8217 261.354 86.5834C263.294 92.8451 263.565 101.449 253.84 106.878Z" fill="#2F2E41"/>
<path d="M274.602 71.6372C273.064 73.996 270.654 75.6464 267.901 76.2257C265.148 76.805 262.279 76.2657 259.923 74.7264C257.567 73.1871 255.918 70.7738 255.338 68.0172C254.759 65.2605 255.296 62.3861 256.832 60.026C260.033 55.1114 276.151 49.8138 276.151 49.8138C276.151 49.8138 277.804 66.7226 274.602 71.6372Z" fill="#6C63FF"/>
<path d="M270.712 38.6994C269.174 41.0574 266.764 42.7072 264.011 43.2861C261.259 43.865 258.39 43.3256 256.034 41.7865C253.679 40.2475 252.03 37.8346 251.45 35.0784C250.87 32.3222 251.407 29.4482 252.942 27.0881C256.143 22.1735 272.261 16.876 272.261 16.876C272.261 16.876 273.914 33.7847 270.712 38.6994Z" fill="#6C63FF"/>
<path d="M253.613 159.371C251.124 159.375 248.708 158.531 246.762 156.977C244.815 155.423 243.455 153.252 242.904 150.821C242.354 148.39 242.646 145.844 243.732 143.601C244.818 141.358 246.634 139.552 248.881 138.48C254.221 135.932 270.237 139.662 270.917 139.822L271.346 139.924L271.154 140.322C270.85 140.95 263.651 155.756 258.31 158.304C256.844 159.007 255.239 159.371 253.613 159.371ZM254.505 138.301C252.333 138.301 250.429 138.526 249.185 139.12C246.731 140.292 244.842 142.393 243.934 144.959C243.026 147.526 243.172 150.349 244.342 152.807C245.511 155.266 247.607 157.159 250.17 158.07C252.732 158.981 255.551 158.835 258.006 157.665C262.652 155.449 269.113 142.834 270.32 140.413C268.389 139.984 260.445 138.301 254.505 138.301V138.301Z" fill="#2F2E41"/>
<path d="M231.993 61.8886C233.023 62.8287 233.857 63.9627 234.449 65.2259C235.041 66.489 235.379 67.8565 235.443 69.2503C235.507 70.6442 235.297 72.037 234.824 73.3493C234.35 74.6617 233.623 75.8678 232.685 76.8988C231.746 77.9299 230.614 78.7657 229.353 79.3584C228.091 79.9512 226.726 80.2894 225.334 80.3537C223.942 80.418 222.552 80.2071 221.241 79.7331C219.931 79.2591 218.727 78.5313 217.697 77.5912C213.368 73.6374 210.734 56.8538 210.734 56.8538C210.734 56.8538 227.664 57.9348 231.993 61.8886Z" fill="#6C63FF"/>
<path d="M207.239 106.514C209.318 108.413 210.559 111.061 210.689 113.876C210.818 116.691 209.826 119.442 207.93 121.524C206.035 123.607 203.39 124.849 200.58 124.979C197.769 125.109 195.022 124.115 192.943 122.217C188.613 118.263 185.98 101.479 185.98 101.479C185.98 101.479 202.909 102.56 207.239 106.514Z" fill="#6C63FF"/>
<path d="M234.986 112.773C231.445 112.773 224.674 109.414 224.363 109.259L223.969 109.062L224.247 108.719C224.484 108.426 230.105 101.53 233.266 100.844C234.834 100.505 236.473 100.804 237.822 101.674C239.171 102.545 240.119 103.916 240.459 105.487C240.798 107.057 240.501 108.699 239.633 110.05C238.764 111.402 237.395 112.352 235.827 112.693C235.55 112.749 235.268 112.776 234.986 112.773ZM225.082 108.821C226.75 109.618 233.137 112.552 235.677 112.001C237.062 111.699 238.27 110.859 239.036 109.666C239.803 108.473 240.065 107.024 239.765 105.637C239.465 104.25 238.628 103.04 237.438 102.271C236.247 101.502 234.8 101.238 233.415 101.537C230.874 102.088 226.271 107.404 225.082 108.821Z" fill="#2F2E41"/>
</g>
<defs>
<clipPath id="clip0_2_80">
<rect width="288" height="286" fill="white"/>
</clipPath>
</defs>
</svg>
